<svg id="Capa_1" enable-background="new 0 0 512 512" height="512" viewBox="0 0 512 512" width="512" xmlns="http://www.w3.org/2000/svg"><g><g><path d="m256 325c-141.387 0-244.009-157.662-223-194.819 43.944-77.72 127.344-130.181 223-130.181 95.581 0 178.926 52.379 222.898 130 21.072 37.199-81.511 195-222.898 195z" fill="#ffe333"/><path d="m512 256c0 26.051-3.891 51.191-11.129 74.871-5.031 16.469-11.672 32.231-19.75 47.109-8.25 15.2-147.391 50.194-225.121 50.194s-216.871-34.994-225.109-50.194c-3.289-6.031-6.332-12.21-9.121-18.531-14-31.629-21.77-66.629-21.77-103.449 0-46.219 12.25-89.57 33.68-127 44.121 77.07 127.16 129 222.32 129s178.211-51.93 222.32-129c21.43 37.43 33.68 80.781 33.68 127zm0 0" fill="#edba2c"/><path d="m481.262 377.699c-7.16 13.223-15.434 25.742-24.723 37.43-6.962 8.773-14.498 17.073-22.539 24.849-1.704 1.648-291.648 51.942-335 18.231-5.454-4.241-10.731-8.698-15.82-13.357-10-9.153-19.282-19.09-27.719-29.723-9.289-11.688-17.563-24.207-24.723-37.43zm0 0" fill="#e1781c"/></g><g><path d="m434.829 281.478h-168.351-167.652v176.595c43.382 33.791 97.924 53.927 157.174 53.927 69.592 0 132.685-27.78 178.829-72.84z" fill="#4b5055"/><path d="m98.826 281.478v176.595c24.809 19.324 53.271 34.17 84.174 43.349v-219.944h-42.174z" fill="#697077"/><path d="m266.478 511.77c65.434-2.636 124.535-29.824 168.351-72.61v-157.682h-168.351z" fill="#373c41"/><path d="m392.217 365.304v-20.957h-125.739-125.739v20.957h41.913v62.87h-41.913v20.957h125.739 125.739v-20.957h-41.913v-62.87zm-62.869 62.87h-62.87-62.87v-62.87h62.87 62.87z" fill="#fcf6e5"/><path d="m392.217 428.174h-41.913v-62.87h41.913v-20.956h-125.739v20.956h62.87v62.87h-62.87v20.956h125.739z" fill="#f7e4cb"/><path d="m422.137 181.559c-1.07-6.062-6.96-16.19-17.302-19.814l-43.092 23.629-54.276 57.937 6.402 15.536 118.286-20.496z" fill="#f7e4cb"/><path d="m391.818 160.316-65.113 11.261-45.941 26.67-14.982 15.992-29.576 31.573-4.609 27.291 34.185-5.923 48.087-8.333 90.966-97.102c-4.08-1.43-8.415-2.226-13.017-1.429z" fill="#4b5055"/><path d="m404.835 161.745c-4.08-1.43-8.415-2.226-13.017-1.429l-65.113 11.261-45.941 26.67-14.982 15.992v52.94l48.087-8.333z" fill="#373c41"/><path d="m265.782 182.113-21.319 3.686-47.863 28.723-36.311 38.761-10.964 34.076 82.272-14.256 34.185-36.492 60.922-65.034z" fill="#fcf6e5"/><path d="m265.782 182.113v54.498l60.922-65.034z" fill="#f7e4cb"/><path d="m162.217 200.024-58.438 40.011-18.923 42.572 2.723 15.451 61.746-10.699 95.138-101.56z" fill="#4b5055"/><path d="m98.815 210.988c-6.887 1.218-12.893 5.045-16.904 10.775s-5.556 12.689-4.328 19.575l7.274 41.268 77.36-82.583z" fill="#fcf6e5"/><g><path d="m109.304 323.391c-17.334 0-31.435-14.101-31.435-31.435s14.101-31.435 31.435-31.435 31.435 14.101 31.435 31.435-14.101 31.435-31.435 31.435z" fill="#373c41"/></g></g><g fill="#fff"><path d="m134.219 143.531h-1.524c-6.754 0-12.226-5.477-12.226-12.227v-1.523h-8.715v1.523c0 6.75-5.477 12.227-12.227 12.227h-1.527v8.715h1.527c6.75 0 12.227 5.472 12.227 12.226v1.528h8.715v-1.528c0-6.754 5.472-12.226 12.226-12.226h1.524zm0 0"/><path d="m228.219 68.75h-1.524c-6.754 0-12.226-5.477-12.226-12.227v-1.523h-8.715v1.523c0 6.75-5.477 12.227-12.227 12.227h-1.527v8.715h1.527c6.75 0 12.227 5.472 12.227 12.226v1.528h8.715v-1.528c0-6.754 5.472-12.226 12.226-12.226h1.524zm0 0"/><path d="m339.219 107.531h-1.524c-6.754 0-12.226-5.477-12.226-12.227v-1.523h-8.715v1.523c0 6.75-5.477 12.227-12.227 12.227h-1.527v8.715h1.527c6.75 0 12.227 5.472 12.227 12.226v1.528h8.715v-1.528c0-6.754 5.472-12.226 12.226-12.226h1.524zm0 0"/></g></g></svg>