<svg id="Capa_1" enable-background="new 0 0 512 512" height="512" viewBox="0 0 512 512" width="512" xmlns="http://www.w3.org/2000/svg"><g><path d="m512 256c0 141.385-114.615 256-256 256s-256-114.615-256-256 114.615-256 256-256 256 114.615 256 256z" fill="#24d3b5"/><path d="m474.023 221.068c0 79.542-64.482 144.023-144.023 144.023s-144.023-64.481-144.023-144.023 64.481-144.023 144.023-144.023 144.023 64.481 144.023 144.023z" fill="#93e2c6"/><path d="m412.031 283.727-65.582 102.067c-6.056 9.238-18.454 11.817-27.691 5.761-9.238-6.056-11.817-18.454-5.761-27.691l65.582-102.067c6.056-9.238 18.454-11.817 27.691-5.761 9.237 6.055 11.816 18.453 5.761 27.691zm-209.542-21.931c-6.056-9.238-18.454-11.817-27.691-5.761-9.238 6.056-11.817 18.454-5.761 27.691l65.582 102.067c6.056 9.238 18.454 11.817 27.691 5.761 9.238-6.056 11.817-18.454 5.761-27.691z" fill="#51489a"/><path d="m137.319 148.605-15.284 129.098c-.974 8.227-8.433 14.106-16.66 13.133-8.227-.974-14.106-8.433-13.132-16.659l15.284-129.099c.974-8.227 8.433-14.106 16.66-13.132 8.226.974 14.106 8.432 13.132 16.659zm354.391 125.572-15.284-129.099c-.974-8.227-8.433-14.106-16.659-13.132-8.227.974-14.106 8.433-13.133 16.659l15.284 129.098c.974 8.227 8.433 14.106 16.66 13.133 8.227-.974 14.107-8.433 13.132-16.659z" fill="#453d83"/><path d="m457.218 130.762v27.484c-45.885-32.787-103.769-52.346-166.684-52.346-66.57 0-127.507 21.897-174.557 58.193v-24.896c43.333-48.687 105.496-79.197 174.557-79.197 64.981 0 123.856 27.012 166.684 70.762z" fill="#e9f3fe"/><path d="m212.235 62.795c24.585-8.297 50.917-12.795 78.299-12.795s53.714 4.498 78.299 12.795c13.367 4.511 22.326 17.104 22.326 31.212 0 21.39-20.08 37.223-40.826 32.012-19.138-4.807-39.171-7.36-59.799-7.36s-40.661 2.553-59.799 7.36c-20.746 5.211-40.826-10.622-40.826-32.012 0-14.107 8.959-26.7 22.326-31.212z" fill="#453d83"/><path d="m245.482 84.573c0-18.225 14.249-33.331 32.451-34.254 4.174-.212 8.375-.319 12.601-.319 27.096 0 53.164 4.404 77.528 12.537 13.768 4.595 23.319 17.491 23.092 32.003-.148 9.489-4.251 17.849-10.591 23.711-3.308-3.058-7.274-5.46-11.731-6.965-24.585-8.298-50.917-12.795-78.299-12.795-4.226 0-8.427.107-12.601.319-3.414.173-6.689.845-9.757 1.943-10.587 3.789-22.115-3.272-22.654-14.503-.026-.556-.039-1.115-.039-1.677z" fill="#51489a"/><path d="m141.415 285.552c7.873 12.009 4.52 28.126-7.489 35.999l-16.726 10.965c-12.009 7.873-28.126 4.52-35.999-7.489l-10.965-16.726c-7.873-12.009-4.52-28.126 7.489-35.999l16.726-10.965c12.009-7.873 28.126-4.52 35.999 7.489zm358.837-13.25-16.726-10.965c-12.009-7.873-28.126-4.52-35.999 7.489l-10.965 16.726c-7.873 12.009-4.52 28.126 7.489 35.999l16.726 10.965c12.009 7.873 28.126 4.52 35.999-7.489l10.965-16.726c7.873-12.009 4.52-28.127-7.489-35.999z" fill="#e9f3fe"/><path d="m122.551 285.961c6.056 9.238 3.477 21.635-5.761 27.691-9.238 6.056-21.635 3.477-27.691-5.761-6.056-9.237-3.477-21.635 5.761-27.691 9.237-6.056 21.635-3.477 27.691 5.761zm360.566-5.761c-9.238-6.056-21.635-3.477-27.691 5.761s-3.477 21.635 5.761 27.691c9.238 6.056 21.635 3.477 27.691-5.761 6.055-9.237 3.476-21.635-5.761-27.691z" fill="#86befb"/><path d="m307.5 161.5v135c0 4.142-3.358 7.5-7.5 7.5s-7.5-3.358-7.5-7.5v-135c0-4.142 3.358-7.5 7.5-7.5s7.5 3.358 7.5 7.5zm-52.5 32.5c-4.142 0-7.5 3.358-7.5 7.5v75c0 4.142 3.358 7.5 7.5 7.5s7.5-3.358 7.5-7.5v-75c0-4.142-3.358-7.5-7.5-7.5zm-40 30c-4.142 0-7.5 3.358-7.5 7.5v15c0 4.142 3.358 7.5 7.5 7.5s7.5-3.358 7.5-7.5v-15c0-4.142-3.358-7.5-7.5-7.5zm175-30c-4.142 0-7.5 3.358-7.5 7.5v15c0 4.142 3.358 7.5 7.5 7.5s7.5-3.358 7.5-7.5v-15c0-4.142-3.358-7.5-7.5-7.5zm-40-60c-4.142 0-7.5 3.358-7.5 7.5v105c0 4.142 3.358 7.5 7.5 7.5s7.5-3.358 7.5-7.5v-105c0-4.142-3.358-7.5-7.5-7.5z" fill="#e9f3fe"/><path d="m307.5 191v76c0 4.142-3.358 7.5-7.5 7.5s-7.5-3.358-7.5-7.5v-76c0-4.142 3.358-7.5 7.5-7.5s7.5 3.358 7.5 7.5zm-52.5 25c-4.142 0-7.5 3.358-7.5 7.5v31c0 4.142 3.358 7.5 7.5 7.5s7.5-3.358 7.5-7.5v-31c0-4.142-3.358-7.5-7.5-7.5zm95-51c-4.142 0-7.5 3.358-7.5 7.5v43c0 4.142 3.358 7.5 7.5 7.5 4.142 0 7.5-3.358 7.5-7.5v-43c0-4.142-3.358-7.5-7.5-7.5z" fill="#fff5f5"/><path d="m141.977 147c0 11.046-8.954 20-20 20s-20-8.954-20-20 8.954-20 20-20 20 8.954 20 20zm320-20c-11.046 0-20 8.954-20 20s8.954 20 20 20 20-8.954 20-20-8.955-20-20-20z" fill="#5f55af"/><path d="m131.977 147c0 5.523-4.477 10-10 10s-10-4.477-10-10 4.477-10 10-10c5.522 0 10 4.477 10 10zm330-10c-5.523 0-10 4.477-10 10s4.477 10 10 10 10-4.477 10-10-4.477-10-10-10z" fill="#453d83"/><path d="m95.039 400.852c-24.224-36.95-13.907-86.542 23.043-110.766l25.089-16.448 87.723 133.809-25.089 16.448c-36.951 24.224-86.542 13.907-110.766-23.043zm387.899 0c24.224-36.95 13.907-86.542-23.043-110.766l-25.089-16.448-87.723 133.809 25.089 16.448c36.951 24.224 86.542 13.907 110.766-23.043z" fill="#453d83"/><path d="m118.082 290.087 25.089-16.448 57.819 88.195-28.102 18.423c-27.362 17.938-61.654 16.935-87.446.204-10.192-33.165 2.166-70.397 32.64-90.374zm341.813 0-25.089-16.448-57.819 88.195 28.102 18.423c27.362 17.938 61.654 16.935 87.446.204 10.192-33.165-2.167-70.397-32.64-90.374z" fill="#5f55af"/><path d="m137.444 343.96c-4.374 15.981-14.397 27.163-22.387 24.976s-10.922-16.915-6.549-32.896c4.374-15.981 14.397-27.163 22.387-24.976 7.991 2.187 10.923 16.915 6.549 32.896zm332.024-7.92c-4.374-15.981-14.397-27.163-22.387-24.976s-10.922 16.915-6.549 32.896c4.374 15.981 14.397 27.163 22.387 24.976 7.991-2.187 10.923-16.915 6.549-32.896z" fill="#8078bf"/><path d="m445.91 274.94-93.205 142.172c-6.056 9.238-18.454 11.817-27.691 5.761-9.238-6.056-11.817-18.454-5.761-27.691l93.205-142.172c6.056-9.238 18.454-11.817 27.691-5.761 9.238 6.055 11.817 18.453 5.761 27.691zm-280.391-21.931c-6.056-9.238-18.454-11.817-27.691-5.761-9.238 6.056-11.817 18.454-5.761 27.691l93.205 142.172c6.056 9.238 18.454 11.817 27.691 5.761 9.238-6.056 11.817-18.454 5.761-27.691z" fill="#e9f3fe"/><path d="m258.724 395.181c3.313 5.054 4.042 11.054 2.509 16.444-7.846 1.686-16.27-1.479-20.934-8.592l-93.205-142.173c-3.313-5.054-4.042-11.054-2.509-16.443 7.846-1.686 16.27 1.479 20.934 8.592zm78.953 7.851 93.205-142.172c3.313-5.054 4.042-11.054 2.509-16.443-7.846-1.686-16.27 1.479-20.933 8.592l-93.205 142.172c-3.313 5.054-4.042 11.054-2.509 16.444 7.845 1.686 16.269-1.479 20.933-8.593z" fill="#fff5f5"/></g></svg>