<?xml version="1.0" encoding="utf-8"?>
<!-- Generator: Adobe Illustrator 25.0.0, SVG Export Plug-In . SVG Version: 6.00 Build 0)  -->
<svg version="1.1" xmlns="http://www.w3.org/2000/svg" xmlns:xlink="http://www.w3.org/1999/xlink" x="0px" y="0px"
	 viewBox="0 0 512 512" style="enable-background:new 0 0 512 512;" xml:space="preserve">
<style type="text/css">
	.st0{fill:#444444;}
	.st1{fill:#D5011D;}
	.st2{fill:#AA011A;}
	.st3{fill:#FF0021;}
</style>
<g id="background">
	<path class="st0" d="M398.5,464h-285C76.8,464,47,434.2,47,397.5v-285C47,75.8,76.8,46,113.5,46h285c36.7,0,66.5,29.8,66.5,66.5
		v285C465,434.2,435.2,464,398.5,464z"/>
</g>
<g id="Capa_1">
	<path class="st1" d="M127.3,64.9l0,382.1l13-1.1c21.8-3.6,44-6.2,66.1-7.7l10.4-0.7V109.7L127.3,64.9z"/>
	<polygon class="st2" points="295.2,65.9 295.2,403.3 384.8,447.1 384.8,65.9 	"/>
	<path class="st1" d="M256,162h-22.4L256,350.7l39.3,86.9l6.6,0.4c23.3,1.5,46.8,4.2,69.8,7.9l13,1.1L256,162z"/>
	<polygon class="st3" points="212.7,65.9 127.3,65.9 256,350.7 256,162 	"/>
</g>
</svg>
